# MagicaVoxel @ Ephtracy

# group
o 

# material
mtllib kiwiGold.mtl
usemtl palette

# normals
vn -1 0 0
vn 1 0 0
vn 0 0 1
vn 0 0 -1
vn 0 -1 0
vn 0 1 0

# texcoords
vt 0.0175781 0.5
vt 0.0214844 0.5
vt 0.208984 0.5
vt 0.306641 0.5
vt 0.958984 0.5
vt 0.994141 0.5

# verts
v -1.5 1.9 -0.2
v -1.5 1.9 -0.5
v -1.5 2.1 -0.2
v -1.5 2.1 -0.5
v -0.7 1.7 -7.45058e-08
v -0.7 1.7 -0.7
v -0.7 1.9 -0.2
v -0.7 1.9 -0.5
v -0.7 2.1 -0.2
v -0.7 2.1 -0.5
v -0.7 2.4 -7.45058e-08
v -0.7 2.4 -0.7
v -0.6 2 0.0999999
v -0.6 2 -7.45058e-08
v -0.6 2 -0.7
v -0.6 2 -0.8
v -0.6 2.3 0.0999999
v -0.6 2.3 -7.45058e-08
v -0.6 2.3 -0.7
v -0.6 2.3 -0.8
v -0.4 0.8 -7.45058e-08
v -0.4 0.8 -0.1
v -0.4 0.8 -0.2
v -0.4 0.8 -0.3
v -0.4 0.8 -0.4
v -0.4 0.8 -0.5
v -0.4 0.8 -0.6
v -0.4 0.8 -0.7
v -0.4 0.9 -7.45058e-08
v -0.4 0.9 -0.1
v -0.4 0.9 -0.2
v -0.4 0.9 -0.3
v -0.4 0.9 -0.4
v -0.4 0.9 -0.5
v -0.4 0.9 -0.6
v -0.4 0.9 -0.7
v -0.4 1.3 -7.45058e-08
v -0.4 1.3 -0.7
v -0.4 1.7 -7.45058e-08
v -0.4 1.7 -0.7
v -0.2 1.2 -0.1
v -0.2 1.2 -0.6
v -0.2 1.3 -0.1
v -0.2 1.3 -0.6
v -0.1 0.8 -0.1
v -0.1 0.8 -0.2
v -0.1 0.8 -0.5
v -0.1 0.8 -0.6
v -0.1 0.9 -0.1
v -0.1 0.9 -0.2
v -0.1 0.9 -0.5
v -0.1 0.9 -0.6
v 0 0.9 -0.1
v 0 0.9 -0.2
v 0 0.9 -0.5
v 0 0.9 -0.6
v 0 1.2 -0.1
v 0 1.2 -0.2
v 0 1.2 -0.5
v 0 1.2 -0.6
v 0.1 1.5 0.0999999
v 0.1 1.5 -7.45058e-08
v 0.1 1.5 -0.7
v 0.1 1.5 -0.8
v 0.1 1.8 0.0999999
v 0.1 1.8 -7.45058e-08
v 0.1 1.8 -0.7
v 0.1 1.8 -0.8
v -0.3 2 0.0999999
v -0.3 2 -7.45058e-08
v -0.3 2 -0.7
v -0.3 2 -0.8
v -0.3 2.3 0.0999999
v -0.3 2.3 -7.45058e-08
v -0.3 2.3 -0.7
v -0.3 2.3 -0.8
v -0.2 1.9 -7.45058e-08
v -0.2 1.9 -0.7
v -0.2 2.4 -7.45058e-08
v -0.2 2.4 -0.7
v 0.1 0.9 -0.1
v 0.1 0.9 -0.2
v 0.1 0.9 -0.5
v 0.1 0.9 -0.6
v 0.1 1.2 -0.1
v 0.1 1.2 -0.2
v 0.1 1.2 -0.5
v 0.1 1.2 -0.6
v 0.2 0.8 -7.45058e-08
v 0.2 0.8 -0.3
v 0.2 0.8 -0.4
v 0.2 0.8 -0.7
v 0.2 0.9 -7.45058e-08
v 0.2 0.9 -0.3
v 0.2 0.9 -0.4
v 0.2 0.9 -0.7
v 0.3 1.2 -0.1
v 0.3 1.2 -0.6
v 0.3 1.3 -0.1
v 0.3 1.3 -0.6
v 0.6 1.3 -7.45058e-08
v 0.6 1.3 -0.7
v 0.6 1.5 -7.45058e-08
v 0.6 1.5 -0.7
v 0.6 1.8 -7.45058e-08
v 0.6 1.8 -0.7
v 0.6 1.9 -7.45058e-08
v 0.6 1.9 -0.7
v 0.7 1.5 0.0999999
v 0.7 1.5 -7.45058e-08
v 0.7 1.5 -0.7
v 0.7 1.5 -0.8
v 0.7 1.8 0.0999999
v 0.7 1.8 -7.45058e-08
v 0.7 1.8 -0.7
v 0.7 1.8 -0.8
v -0.6 2 0.0999999
v -0.6 2.3 0.0999999
v -0.5 2.1 0.0999999
v -0.5 2.2 0.0999999
v -0.4 2.1 0.0999999
v -0.4 2.2 0.0999999
v -0.3 2 0.0999999
v -0.3 2.3 0.0999999
v 0.1 1.5 0.0999999
v 0.1 1.8 0.0999999
v 0.7 1.5 0.0999999
v 0.7 1.8 0.0999999
v -0.7 1.7 -7.45058e-08
v -0.7 2.4 -7.45058e-08
v -0.6 2 -7.45058e-08
v -0.6 2.3 -7.45058e-08
v -0.4 0.8 -7.45058e-08
v -0.4 0.9 -7.45058e-08
v -0.4 1.3 -7.45058e-08
v -0.4 1.7 -7.45058e-08
v -0.3 2 -7.45058e-08
v -0.3 2.3 -7.45058e-08
v -0.2 1.9 -7.45058e-08
v -0.2 2.4 -7.45058e-08
v 0.1 1.5 -7.45058e-08
v 0.1 1.8 -7.45058e-08
v 0.2 0.8 -7.45058e-08
v 0.2 0.9 -7.45058e-08
v 0.6 1.3 -7.45058e-08
v 0.6 1.5 -7.45058e-08
v 0.6 1.8 -7.45058e-08
v 0.6 1.9 -7.45058e-08
v -0.2 1.2 -0.1
v -0.2 1.3 -0.1
v 0 0.9 -0.1
v 0 1.2 -0.1
v 0.1 0.9 -0.1
v 0.1 1.2 -0.1
v 0.3 1.2 -0.1
v 0.3 1.3 -0.1
v -1.5 1.9 -0.2
v -1.5 2.1 -0.2
v -0.7 1.9 -0.2
v -0.7 2.1 -0.2
v -0.4 0.8 -0.2
v -0.4 0.9 -0.2
v -0.1 0.8 -0.2
v -0.1 0.9 -0.2
v -0.4 0.8 -0.4
v -0.4 0.9 -0.4
v 0.2 0.8 -0.4
v 0.2 0.9 -0.4
v 0 0.9 -0.5
v 0 1.2 -0.5
v 0.1 0.9 -0.5
v 0.1 1.2 -0.5
v -0.4 0.8 -0.6
v -0.4 0.9 -0.6
v -0.1 0.8 -0.6
v -0.1 0.9 -0.6
v 0.6 1.5 -0.7
v 0.6 1.8 -0.7
v 0.7 1.5 -0.7
v 0.7 1.8 -0.7
v 0.6 1.5 -7.45058e-08
v 0.6 1.8 -7.45058e-08
v 0.7 1.5 -7.45058e-08
v 0.7 1.8 -7.45058e-08
v -0.4 0.8 -0.1
v -0.4 0.9 -0.1
v -0.1 0.8 -0.1
v -0.1 0.9 -0.1
v 0 0.9 -0.2
v 0 1.2 -0.2
v 0.1 0.9 -0.2
v 0.1 1.2 -0.2
v -0.4 0.8 -0.3
v -0.4 0.9 -0.3
v 0.2 0.8 -0.3
v 0.2 0.9 -0.3
v -1.5 1.9 -0.5
v -1.5 2.1 -0.5
v -0.7 1.9 -0.5
v -0.7 2.1 -0.5
v -0.4 0.8 -0.5
v -0.4 0.9 -0.5
v -0.1 0.8 -0.5
v -0.1 0.9 -0.5
v -0.2 1.2 -0.6
v -0.2 1.3 -0.6
v 0 0.9 -0.6
v 0 1.2 -0.6
v 0.1 0.9 -0.6
v 0.1 1.2 -0.6
v 0.3 1.2 -0.6
v 0.3 1.3 -0.6
v -0.7 1.7 -0.7
v -0.7 2.4 -0.7
v -0.6 2 -0.7
v -0.6 2.3 -0.7
v -0.4 0.8 -0.7
v -0.4 0.9 -0.7
v -0.4 1.3 -0.7
v -0.4 1.7 -0.7
v -0.3 2 -0.7
v -0.3 2.3 -0.7
v -0.2 1.9 -0.7
v -0.2 2.4 -0.7
v 0.1 1.5 -0.7
v 0.1 1.8 -0.7
v 0.2 0.8 -0.7
v 0.2 0.9 -0.7
v 0.6 1.3 -0.7
v 0.6 1.5 -0.7
v 0.6 1.8 -0.7
v 0.6 1.9 -0.7
v -0.6 2 -0.8
v -0.6 2.3 -0.8
v -0.5 2.1 -0.8
v -0.5 2.2 -0.8
v -0.4 2.1 -0.8
v -0.4 2.2 -0.8
v -0.3 2 -0.8
v -0.3 2.3 -0.8
v 0.1 1.5 -0.8
v 0.1 1.8 -0.8
v 0.7 1.5 -0.8
v 0.7 1.8 -0.8
v -0.4 0.8 -7.45058e-08
v 0.2 0.8 -7.45058e-08
v -0.4 0.8 -0.1
v -0.1 0.8 -0.1
v -0.4 0.8 -0.2
v -0.1 0.8 -0.2
v -0.4 0.8 -0.3
v 0.2 0.8 -0.3
v -0.4 0.8 -0.4
v 0.2 0.8 -0.4
v -0.4 0.8 -0.5
v -0.1 0.8 -0.5
v -0.4 0.8 -0.6
v -0.1 0.8 -0.6
v -0.4 0.8 -0.7
v 0.2 0.8 -0.7
v -0.2 1.2 -0.1
v 0 1.2 -0.1
v 0.1 1.2 -0.1
v 0.3 1.2 -0.1
v 0 1.2 -0.2
v 0.1 1.2 -0.2
v 0 1.2 -0.5
v 0.1 1.2 -0.5
v -0.2 1.2 -0.6
v 0 1.2 -0.6
v 0.1 1.2 -0.6
v 0.3 1.2 -0.6
v -0.4 1.3 -7.45058e-08
v 0.6 1.3 -7.45058e-08
v -0.2 1.3 -0.1
v 0.3 1.3 -0.1
v -0.2 1.3 -0.6
v 0.3 1.3 -0.6
v -0.4 1.3 -0.7
v 0.6 1.3 -0.7
v 0.1 1.5 0.0999999
v 0.7 1.5 0.0999999
v 0.1 1.5 -7.45058e-08
v 0.6 1.5 -7.45058e-08
v 0.7 1.5 -7.45058e-08
v 0.1 1.5 -0.7
v 0.6 1.5 -0.7
v 0.7 1.5 -0.7
v 0.1 1.5 -0.8
v 0.7 1.5 -0.8
v -0.7 1.7 -7.45058e-08
v -0.4 1.7 -7.45058e-08
v -0.7 1.7 -0.7
v -0.4 1.7 -0.7
v -1.5 1.9 -0.2
v -0.7 1.9 -0.2
v -1.5 1.9 -0.5
v -0.7 1.9 -0.5
v -0.6 2 0.0999999
v -0.3 2 0.0999999
v -0.6 2 -7.45058e-08
v -0.3 2 -7.45058e-08
v -0.6 2 -0.7
v -0.3 2 -0.7
v -0.6 2 -0.8
v -0.3 2 -0.8
v -0.4 0.9 -7.45058e-08
v 0.2 0.9 -7.45058e-08
v -0.4 0.9 -0.1
v -0.1 0.9 -0.1
v 0 0.9 -0.1
v 0.1 0.9 -0.1
v -0.4 0.9 -0.2
v -0.1 0.9 -0.2
v 0 0.9 -0.2
v 0.1 0.9 -0.2
v -0.4 0.9 -0.3
v 0.2 0.9 -0.3
v -0.4 0.9 -0.4
v 0.2 0.9 -0.4
v -0.4 0.9 -0.5
v -0.1 0.9 -0.5
v 0 0.9 -0.5
v 0.1 0.9 -0.5
v -0.4 0.9 -0.6
v -0.1 0.9 -0.6
v 0 0.9 -0.6
v 0.1 0.9 -0.6
v -0.4 0.9 -0.7
v 0.2 0.9 -0.7
v 0.1 1.8 0.0999999
v 0.7 1.8 0.0999999
v 0.1 1.8 -7.45058e-08
v 0.6 1.8 -7.45058e-08
v 0.7 1.8 -7.45058e-08
v 0.1 1.8 -0.7
v 0.6 1.8 -0.7
v 0.7 1.8 -0.7
v 0.1 1.8 -0.8
v 0.7 1.8 -0.8
v -0.2 1.9 -7.45058e-08
v 0.6 1.9 -7.45058e-08
v -0.2 1.9 -0.7
v 0.6 1.9 -0.7
v -1.5 2.1 -0.2
v -0.7 2.1 -0.2
v -1.5 2.1 -0.5
v -0.7 2.1 -0.5
v -0.6 2.3 0.0999999
v -0.3 2.3 0.0999999
v -0.6 2.3 -7.45058e-08
v -0.3 2.3 -7.45058e-08
v -0.6 2.3 -0.7
v -0.3 2.3 -0.7
v -0.6 2.3 -0.8
v -0.3 2.3 -0.8
v -0.7 2.4 -7.45058e-08
v -0.2 2.4 -7.45058e-08
v -0.7 2.4 -0.7
v -0.2 2.4 -0.7

# faces
f 3/1/1 2/1/1 1/1/1
f 4/1/1 2/1/1 3/1/1
f 7/3/1 6/3/1 5/3/1
f 8/3/1 6/3/1 7/3/1
f 9/3/1 7/3/1 5/3/1
f 10/3/1 6/3/1 8/3/1
f 11/3/1 9/3/1 5/3/1
f 11/3/1 10/3/1 9/3/1
f 12/3/1 6/3/1 10/3/1
f 12/3/1 10/3/1 11/3/1
f 17/5/1 14/5/1 13/5/1
f 18/5/1 14/5/1 17/5/1
f 19/5/1 16/5/1 15/5/1
f 20/5/1 16/5/1 19/5/1
f 29/2/1 22/2/1 21/2/1
f 30/2/1 22/2/1 29/2/1
f 31/2/1 24/2/1 23/2/1
f 32/2/1 24/2/1 31/2/1
f 33/2/1 26/2/1 25/2/1
f 34/2/1 26/2/1 33/2/1
f 35/2/1 28/2/1 27/2/1
f 36/2/1 28/2/1 35/2/1
f 39/3/1 38/3/1 37/3/1
f 40/3/1 38/3/1 39/3/1
f 43/3/1 42/3/1 41/3/1
f 44/3/1 42/3/1 43/3/1
f 49/2/1 46/2/1 45/2/1
f 50/2/1 46/2/1 49/2/1
f 51/2/1 48/2/1 47/2/1
f 52/2/1 48/2/1 51/2/1
f 57/2/1 54/2/1 53/2/1
f 58/2/1 54/2/1 57/2/1
f 59/2/1 56/2/1 55/2/1
f 60/2/1 56/2/1 59/2/1
f 65/3/1 62/3/1 61/3/1
f 66/3/1 62/3/1 65/3/1
f 67/3/1 64/3/1 63/3/1
f 68/3/1 64/3/1 67/3/1
f 69/5/2 70/5/2 73/5/2
f 73/5/2 70/5/2 74/5/2
f 71/5/2 72/5/2 75/5/2
f 75/5/2 72/5/2 76/5/2
f 77/3/2 78/3/2 79/3/2
f 79/3/2 78/3/2 80/3/2
f 81/2/2 82/2/2 85/2/2
f 85/2/2 82/2/2 86/2/2
f 83/2/2 84/2/2 87/2/2
f 87/2/2 84/2/2 88/2/2
f 89/2/2 90/2/2 93/2/2
f 93/2/2 90/2/2 94/2/2
f 91/2/2 92/2/2 95/2/2
f 95/2/2 92/2/2 96/2/2
f 97/3/2 98/3/2 99/3/2
f 99/3/2 98/3/2 100/3/2
f 101/3/2 102/3/2 103/3/2
f 103/3/2 102/3/2 104/3/2
f 103/3/2 104/3/2 105/3/2
f 105/3/2 104/3/2 106/3/2
f 105/3/2 106/3/2 107/3/2
f 107/3/2 106/3/2 108/3/2
f 109/3/2 110/3/2 113/3/2
f 113/3/2 110/3/2 114/3/2
f 111/3/2 112/3/2 115/3/2
f 115/3/2 112/3/2 116/3/2
f 119/5/3 118/5/3 117/5/3
f 120/5/3 118/5/3 119/5/3
f 121/5/3 119/5/3 117/5/3
f 121/6/3 120/6/3 119/6/3
f 122/5/3 118/5/3 120/5/3
f 122/6/3 120/6/3 121/6/3
f 123/5/3 121/5/3 117/5/3
f 123/5/3 122/5/3 121/5/3
f 124/5/3 118/5/3 122/5/3
f 124/5/3 122/5/3 123/5/3
f 127/3/3 126/3/3 125/3/3
f 128/3/3 126/3/3 127/3/3
f 131/3/3 130/3/3 129/3/3
f 132/3/3 130/3/3 131/3/3
f 136/3/3 131/3/3 129/3/3
f 137/3/3 131/3/3 136/3/3
f 137/3/3 136/3/3 135/3/3
f 138/3/3 130/3/3 132/3/3
f 139/3/3 137/3/3 135/3/3
f 139/3/3 138/3/3 137/3/3
f 140/3/3 130/3/3 138/3/3
f 140/3/3 138/3/3 139/3/3
f 141/3/3 139/3/3 135/3/3
f 142/3/3 139/3/3 141/3/3
f 143/2/3 134/2/3 133/2/3
f 144/2/3 134/2/3 143/2/3
f 145/3/3 141/3/3 135/3/3
f 146/3/3 141/3/3 145/3/3
f 147/3/3 139/3/3 142/3/3
f 148/3/3 139/3/3 147/3/3
f 152/3/3 150/3/3 149/3/3
f 153/2/3 152/2/3 151/2/3
f 154/3/3 150/3/3 152/3/3
f 154/2/3 152/2/3 153/2/3
f 155/3/3 150/3/3 154/3/3
f 156/3/3 150/3/3 155/3/3
f 159/1/3 158/1/3 157/1/3
f 160/1/3 158/1/3 159/1/3
f 163/2/3 162/2/3 161/2/3
f 164/2/3 162/2/3 163/2/3
f 167/2/3 166/2/3 165/2/3
f 168/2/3 166/2/3 167/2/3
f 171/2/3 170/2/3 169/2/3
f 172/2/3 170/2/3 171/2/3
f 175/2/3 174/2/3 173/2/3
f 176/2/3 174/2/3 175/2/3
f 179/3/3 178/3/3 177/3/3
f 180/3/3 178/3/3 179/3/3
f 181/3/4 182/3/4 183/3/4
f 183/3/4 182/3/4 184/3/4
f 185/2/4 186/2/4 187/2/4
f 187/2/4 186/2/4 188/2/4
f 189/2/4 190/2/4 191/2/4
f 191/2/4 190/2/4 192/2/4
f 193/2/4 194/2/4 195/2/4
f 195/2/4 194/2/4 196/2/4
f 197/1/4 198/1/4 199/1/4
f 199/1/4 198/1/4 200/1/4
f 201/2/4 202/2/4 203/2/4
f 203/2/4 202/2/4 204/2/4
f 205/3/4 206/3/4 208/3/4
f 207/2/4 208/2/4 209/2/4
f 208/3/4 206/3/4 210/3/4
f 209/2/4 208/2/4 210/2/4
f 210/3/4 206/3/4 211/3/4
f 211/3/4 206/3/4 212/3/4
f 213/3/4 214/3/4 215/3/4
f 215/3/4 214/3/4 216/3/4
f 213/3/4 215/3/4 220/3/4
f 220/3/4 215/3/4 221/3/4
f 219/3/4 220/3/4 221/3/4
f 216/3/4 214/3/4 222/3/4
f 219/3/4 221/3/4 223/3/4
f 221/3/4 222/3/4 223/3/4
f 222/3/4 214/3/4 224/3/4
f 223/3/4 222/3/4 224/3/4
f 219/3/4 223/3/4 225/3/4
f 225/3/4 223/3/4 226/3/4
f 217/2/4 218/2/4 227/2/4
f 227/2/4 218/2/4 228/2/4
f 219/3/4 225/3/4 229/3/4
f 229/3/4 225/3/4 230/3/4
f 226/3/4 223/3/4 231/3/4
f 231/3/4 223/3/4 232/3/4
f 233/5/4 234/5/4 235/5/4
f 235/5/4 234/5/4 236/5/4
f 233/5/4 235/5/4 237/5/4
f 235/6/4 236/6/4 237/6/4
f 236/5/4 234/5/4 238/5/4
f 237/6/4 236/6/4 238/6/4
f 233/5/4 237/5/4 239/5/4
f 237/5/4 238/5/4 239/5/4
f 238/5/4 234/5/4 240/5/4
f 239/5/4 238/5/4 240/5/4
f 241/3/4 242/3/4 243/3/4
f 243/3/4 242/3/4 244/3/4
f 247/2/5 246/2/5 245/2/5
f 248/2/5 246/2/5 247/2/5
f 250/2/5 246/2/5 248/2/5
f 251/2/5 250/2/5 249/2/5
f 252/2/5 246/2/5 250/2/5
f 252/2/5 250/2/5 251/2/5
f 255/2/5 254/2/5 253/2/5
f 256/2/5 254/2/5 255/2/5
f 258/2/5 254/2/5 256/2/5
f 259/2/5 258/2/5 257/2/5
f 260/2/5 254/2/5 258/2/5
f 260/2/5 258/2/5 259/2/5
f 265/3/5 262/3/5 261/3/5
f 266/3/5 264/3/5 263/3/5
f 267/3/5 265/3/5 261/3/5
f 267/3/5 266/3/5 265/3/5
f 268/3/5 264/3/5 266/3/5
f 268/3/5 266/3/5 267/3/5
f 269/3/5 267/3/5 261/3/5
f 270/3/5 267/3/5 269/3/5
f 271/3/5 264/3/5 268/3/5
f 272/3/5 264/3/5 271/3/5
f 275/3/5 274/3/5 273/3/5
f 276/3/5 274/3/5 275/3/5
f 277/3/5 275/3/5 273/3/5
f 278/3/5 274/3/5 276/3/5
f 279/3/5 277/3/5 273/3/5
f 279/3/5 278/3/5 277/3/5
f 280/3/5 274/3/5 278/3/5
f 280/3/5 278/3/5 279/3/5
f 283/3/5 282/3/5 281/3/5
f 284/3/5 282/3/5 283/3/5
f 285/3/5 282/3/5 284/3/5
f 289/3/5 287/3/5 286/3/5
f 289/3/5 288/3/5 287/3/5
f 290/3/5 288/3/5 289/3/5
f 293/3/5 292/3/5 291/3/5
f 294/3/5 292/3/5 293/3/5
f 297/1/5 296/1/5 295/1/5
f 298/1/5 296/1/5 297/1/5
f 301/5/5 300/5/5 299/5/5
f 302/5/5 300/5/5 301/5/5
f 305/5/5 304/5/5 303/5/5
f 306/5/5 304/5/5 305/5/5
f 307/2/6 308/2/6 309/2/6
f 309/2/6 308/2/6 310/2/6
f 310/2/6 308/2/6 311/2/6
f 311/2/6 308/2/6 312/2/6
f 310/2/6 311/2/6 314/2/6
f 314/2/6 311/2/6 315/2/6
f 312/2/6 308/2/6 316/2/6
f 314/2/6 315/2/6 317/2/6
f 315/2/6 316/2/6 317/2/6
f 313/2/6 314/2/6 317/2/6
f 316/2/6 308/2/6 318/2/6
f 317/2/6 316/2/6 318/2/6
f 319/2/6 320/2/6 321/2/6
f 321/2/6 320/2/6 322/2/6
f 322/2/6 320/2/6 323/2/6
f 323/2/6 320/2/6 324/2/6
f 322/2/6 323/2/6 326/2/6
f 326/2/6 323/2/6 327/2/6
f 324/2/6 320/2/6 328/2/6
f 326/2/6 327/2/6 329/2/6
f 327/2/6 328/2/6 329/2/6
f 325/2/6 326/2/6 329/2/6
f 328/2/6 320/2/6 330/2/6
f 329/2/6 328/2/6 330/2/6
f 331/3/6 332/3/6 333/3/6
f 333/3/6 332/3/6 334/3/6
f 334/3/6 332/3/6 335/3/6
f 336/3/6 337/3/6 339/3/6
f 337/3/6 338/3/6 339/3/6
f 339/3/6 338/3/6 340/3/6
f 341/3/6 342/3/6 343/3/6
f 343/3/6 342/3/6 344/3/6
f 345/1/6 346/1/6 347/1/6
f 347/1/6 346/1/6 348/1/6
f 349/5/6 350/5/6 351/5/6
f 351/5/6 350/5/6 352/5/6
f 353/5/6 354/5/6 355/5/6
f 355/5/6 354/5/6 356/5/6
f 357/3/6 358/3/6 359/3/6
f 359/3/6 358/3/6 360/3/6
