# MagicaVoxel @ Ephtracy

# group
o 

# material
mtllib kiwiWhite.mtl
usemtl palette

# normals
vn -1 0 0
vn 1 0 0
vn 0 0 1
vn 0 0 -1
vn 0 -1 0
vn 0 1 0

# texcoords
vt 0.00585938 0.5
vt 0.0175781 0.5
vt 0.0214844 0.5
vt 0.306641 0.5
vt 0.958984 0.5
vt 0.994141 0.5

# verts
v -1.5 1.9 -0.2
v -1.5 1.9 -0.5
v -1.5 2.1 -0.2
v -1.5 2.1 -0.5
v -0.7 1.7 -7.45058e-08
v -0.7 1.7 -0.7
v -0.7 1.9 -0.2
v -0.7 1.9 -0.5
v -0.7 2.1 -0.2
v -0.7 2.1 -0.5
v -0.7 2.4 -7.45058e-08
v -0.7 2.4 -0.7
v -0.6 2 0.0999999
v -0.6 2 -7.45058e-08
v -0.6 2 -0.7
v -0.6 2 -0.8
v -0.6 2.3 0.0999999
v -0.6 2.3 -7.45058e-08
v -0.6 2.3 -0.7
v -0.6 2.3 -0.8
v -0.4 0.8 -7.45058e-08
v -0.4 0.8 -0.1
v -0.4 0.8 -0.2
v -0.4 0.8 -0.3
v -0.4 0.8 -0.4
v -0.4 0.8 -0.5
v -0.4 0.8 -0.6
v -0.4 0.8 -0.7
v -0.4 0.9 -7.45058e-08
v -0.4 0.9 -0.1
v -0.4 0.9 -0.2
v -0.4 0.9 -0.3
v -0.4 0.9 -0.4
v -0.4 0.9 -0.5
v -0.4 0.9 -0.6
v -0.4 0.9 -0.7
v -0.4 1.3 -7.45058e-08
v -0.4 1.3 -0.7
v -0.4 1.7 -7.45058e-08
v -0.4 1.7 -0.7
v -0.2 1.2 -0.1
v -0.2 1.2 -0.6
v -0.2 1.3 -0.1
v -0.2 1.3 -0.6
v -0.1 0.8 -0.1
v -0.1 0.8 -0.2
v -0.1 0.8 -0.5
v -0.1 0.8 -0.6
v -0.1 0.9 -0.1
v -0.1 0.9 -0.2
v -0.1 0.9 -0.5
v -0.1 0.9 -0.6
v 0 0.9 -0.1
v 0 0.9 -0.2
v 0 0.9 -0.5
v 0 0.9 -0.6
v 0 1.2 -0.1
v 0 1.2 -0.2
v 0 1.2 -0.5
v 0 1.2 -0.6
v 0.1 1.5 0.0999999
v 0.1 1.5 -7.45058e-08
v 0.1 1.5 -0.7
v 0.1 1.5 -0.8
v 0.1 1.8 0.0999999
v 0.1 1.8 -7.45058e-08
v 0.1 1.8 -0.7
v 0.1 1.8 -0.8
v -0.3 2 0.0999999
v -0.3 2 -7.45058e-08
v -0.3 2 -0.7
v -0.3 2 -0.8
v -0.3 2.3 0.0999999
v -0.3 2.3 -7.45058e-08
v -0.3 2.3 -0.7
v -0.3 2.3 -0.8
v -0.2 1.9 -7.45058e-08
v -0.2 1.9 -0.7
v -0.2 2.4 -7.45058e-08
v -0.2 2.4 -0.7
v 0.1 0.9 -0.1
v 0.1 0.9 -0.2
v 0.1 0.9 -0.5
v 0.1 0.9 -0.6
v 0.1 1.2 -0.1
v 0.1 1.2 -0.2
v 0.1 1.2 -0.5
v 0.1 1.2 -0.6
v 0.2 0.8 -7.45058e-08
v 0.2 0.8 -0.3
v 0.2 0.8 -0.4
v 0.2 0.8 -0.7
v 0.2 0.9 -7.45058e-08
v 0.2 0.9 -0.3
v 0.2 0.9 -0.4
v 0.2 0.9 -0.7
v 0.3 1.2 -0.1
v 0.3 1.2 -0.6
v 0.3 1.3 -0.1
v 0.3 1.3 -0.6
v 0.6 1.3 -7.45058e-08
v 0.6 1.3 -0.7
v 0.6 1.5 -7.45058e-08
v 0.6 1.5 -0.7
v 0.6 1.8 -7.45058e-08
v 0.6 1.8 -0.7
v 0.6 1.9 -7.45058e-08
v 0.6 1.9 -0.7
v 0.7 1.5 0.0999999
v 0.7 1.5 -7.45058e-08
v 0.7 1.5 -0.7
v 0.7 1.5 -0.8
v 0.7 1.8 0.0999999
v 0.7 1.8 -7.45058e-08
v 0.7 1.8 -0.7
v 0.7 1.8 -0.8
v -0.6 2 0.0999999
v -0.6 2.3 0.0999999
v -0.5 2.1 0.0999999
v -0.5 2.2 0.0999999
v -0.4 2.1 0.0999999
v -0.4 2.2 0.0999999
v -0.3 2 0.0999999
v -0.3 2.3 0.0999999
v 0.1 1.5 0.0999999
v 0.1 1.8 0.0999999
v 0.7 1.5 0.0999999
v 0.7 1.8 0.0999999
v -0.7 1.7 -7.45058e-08
v -0.7 2.4 -7.45058e-08
v -0.6 2 -7.45058e-08
v -0.6 2.3 -7.45058e-08
v -0.4 0.8 -7.45058e-08
v -0.4 0.9 -7.45058e-08
v -0.4 1.3 -7.45058e-08
v -0.4 1.7 -7.45058e-08
v -0.3 2 -7.45058e-08
v -0.3 2.3 -7.45058e-08
v -0.2 1.9 -7.45058e-08
v -0.2 2.4 -7.45058e-08
v 0.1 1.5 -7.45058e-08
v 0.1 1.8 -7.45058e-08
v 0.2 0.8 -7.45058e-08
v 0.2 0.9 -7.45058e-08
v 0.6 1.3 -7.45058e-08
v 0.6 1.5 -7.45058e-08
v 0.6 1.8 -7.45058e-08
v 0.6 1.9 -7.45058e-08
v -0.2 1.2 -0.1
v -0.2 1.3 -0.1
v 0 0.9 -0.1
v 0 1.2 -0.1
v 0.1 0.9 -0.1
v 0.1 1.2 -0.1
v 0.3 1.2 -0.1
v 0.3 1.3 -0.1
v -1.5 1.9 -0.2
v -1.5 2.1 -0.2
v -0.7 1.9 -0.2
v -0.7 2.1 -0.2
v -0.4 0.8 -0.2
v -0.4 0.9 -0.2
v -0.1 0.8 -0.2
v -0.1 0.9 -0.2
v -0.4 0.8 -0.4
v -0.4 0.9 -0.4
v 0.2 0.8 -0.4
v 0.2 0.9 -0.4
v 0 0.9 -0.5
v 0 1.2 -0.5
v 0.1 0.9 -0.5
v 0.1 1.2 -0.5
v -0.4 0.8 -0.6
v -0.4 0.9 -0.6
v -0.1 0.8 -0.6
v -0.1 0.9 -0.6
v 0.6 1.5 -0.7
v 0.6 1.8 -0.7
v 0.7 1.5 -0.7
v 0.7 1.8 -0.7
v 0.6 1.5 -7.45058e-08
v 0.6 1.8 -7.45058e-08
v 0.7 1.5 -7.45058e-08
v 0.7 1.8 -7.45058e-08
v -0.4 0.8 -0.1
v -0.4 0.9 -0.1
v -0.1 0.8 -0.1
v -0.1 0.9 -0.1
v 0 0.9 -0.2
v 0 1.2 -0.2
v 0.1 0.9 -0.2
v 0.1 1.2 -0.2
v -0.4 0.8 -0.3
v -0.4 0.9 -0.3
v 0.2 0.8 -0.3
v 0.2 0.9 -0.3
v -1.5 1.9 -0.5
v -1.5 2.1 -0.5
v -0.7 1.9 -0.5
v -0.7 2.1 -0.5
v -0.4 0.8 -0.5
v -0.4 0.9 -0.5
v -0.1 0.8 -0.5
v -0.1 0.9 -0.5
v -0.2 1.2 -0.6
v -0.2 1.3 -0.6
v 0 0.9 -0.6
v 0 1.2 -0.6
v 0.1 0.9 -0.6
v 0.1 1.2 -0.6
v 0.3 1.2 -0.6
v 0.3 1.3 -0.6
v -0.7 1.7 -0.7
v -0.7 2.4 -0.7
v -0.6 2 -0.7
v -0.6 2.3 -0.7
v -0.4 0.8 -0.7
v -0.4 0.9 -0.7
v -0.4 1.3 -0.7
v -0.4 1.7 -0.7
v -0.3 2 -0.7
v -0.3 2.3 -0.7
v -0.2 1.9 -0.7
v -0.2 2.4 -0.7
v 0.1 1.5 -0.7
v 0.1 1.8 -0.7
v 0.2 0.8 -0.7
v 0.2 0.9 -0.7
v 0.6 1.3 -0.7
v 0.6 1.5 -0.7
v 0.6 1.8 -0.7
v 0.6 1.9 -0.7
v -0.6 2 -0.8
v -0.6 2.3 -0.8
v -0.5 2.1 -0.8
v -0.5 2.2 -0.8
v -0.4 2.1 -0.8
v -0.4 2.2 -0.8
v -0.3 2 -0.8
v -0.3 2.3 -0.8
v 0.1 1.5 -0.8
v 0.1 1.8 -0.8
v 0.7 1.5 -0.8
v 0.7 1.8 -0.8
v -0.4 0.8 -7.45058e-08
v 0.2 0.8 -7.45058e-08
v -0.4 0.8 -0.1
v -0.1 0.8 -0.1
v -0.4 0.8 -0.2
v -0.1 0.8 -0.2
v -0.4 0.8 -0.3
v 0.2 0.8 -0.3
v -0.4 0.8 -0.4
v 0.2 0.8 -0.4
v -0.4 0.8 -0.5
v -0.1 0.8 -0.5
v -0.4 0.8 -0.6
v -0.1 0.8 -0.6
v -0.4 0.8 -0.7
v 0.2 0.8 -0.7
v -0.2 1.2 -0.1
v 0 1.2 -0.1
v 0.1 1.2 -0.1
v 0.3 1.2 -0.1
v 0 1.2 -0.2
v 0.1 1.2 -0.2
v 0 1.2 -0.5
v 0.1 1.2 -0.5
v -0.2 1.2 -0.6
v 0 1.2 -0.6
v 0.1 1.2 -0.6
v 0.3 1.2 -0.6
v -0.4 1.3 -7.45058e-08
v 0.6 1.3 -7.45058e-08
v -0.2 1.3 -0.1
v 0.3 1.3 -0.1
v -0.2 1.3 -0.6
v 0.3 1.3 -0.6
v -0.4 1.3 -0.7
v 0.6 1.3 -0.7
v 0.1 1.5 0.0999999
v 0.7 1.5 0.0999999
v 0.1 1.5 -7.45058e-08
v 0.6 1.5 -7.45058e-08
v 0.7 1.5 -7.45058e-08
v 0.1 1.5 -0.7
v 0.6 1.5 -0.7
v 0.7 1.5 -0.7
v 0.1 1.5 -0.8
v 0.7 1.5 -0.8
v -0.7 1.7 -7.45058e-08
v -0.4 1.7 -7.45058e-08
v -0.7 1.7 -0.7
v -0.4 1.7 -0.7
v -1.5 1.9 -0.2
v -0.7 1.9 -0.2
v -1.5 1.9 -0.5
v -0.7 1.9 -0.5
v -0.6 2 0.0999999
v -0.3 2 0.0999999
v -0.6 2 -7.45058e-08
v -0.3 2 -7.45058e-08
v -0.6 2 -0.7
v -0.3 2 -0.7
v -0.6 2 -0.8
v -0.3 2 -0.8
v -0.4 0.9 -7.45058e-08
v 0.2 0.9 -7.45058e-08
v -0.4 0.9 -0.1
v -0.1 0.9 -0.1
v 0 0.9 -0.1
v 0.1 0.9 -0.1
v -0.4 0.9 -0.2
v -0.1 0.9 -0.2
v 0 0.9 -0.2
v 0.1 0.9 -0.2
v -0.4 0.9 -0.3
v 0.2 0.9 -0.3
v -0.4 0.9 -0.4
v 0.2 0.9 -0.4
v -0.4 0.9 -0.5
v -0.1 0.9 -0.5
v 0 0.9 -0.5
v 0.1 0.9 -0.5
v -0.4 0.9 -0.6
v -0.1 0.9 -0.6
v 0 0.9 -0.6
v 0.1 0.9 -0.6
v -0.4 0.9 -0.7
v 0.2 0.9 -0.7
v 0.1 1.8 0.0999999
v 0.7 1.8 0.0999999
v 0.1 1.8 -7.45058e-08
v 0.6 1.8 -7.45058e-08
v 0.7 1.8 -7.45058e-08
v 0.1 1.8 -0.7
v 0.6 1.8 -0.7
v 0.7 1.8 -0.7
v 0.1 1.8 -0.8
v 0.7 1.8 -0.8
v -0.2 1.9 -7.45058e-08
v 0.6 1.9 -7.45058e-08
v -0.2 1.9 -0.7
v 0.6 1.9 -0.7
v -1.5 2.1 -0.2
v -0.7 2.1 -0.2
v -1.5 2.1 -0.5
v -0.7 2.1 -0.5
v -0.6 2.3 0.0999999
v -0.3 2.3 0.0999999
v -0.6 2.3 -7.45058e-08
v -0.3 2.3 -7.45058e-08
v -0.6 2.3 -0.7
v -0.3 2.3 -0.7
v -0.6 2.3 -0.8
v -0.3 2.3 -0.8
v -0.7 2.4 -7.45058e-08
v -0.2 2.4 -7.45058e-08
v -0.7 2.4 -0.7
v -0.2 2.4 -0.7

# faces
f 3/2/1 2/2/1 1/2/1
f 4/2/1 2/2/1 3/2/1
f 7/1/1 6/1/1 5/1/1
f 8/1/1 6/1/1 7/1/1
f 9/1/1 7/1/1 5/1/1
f 10/1/1 6/1/1 8/1/1
f 11/1/1 9/1/1 5/1/1
f 11/1/1 10/1/1 9/1/1
f 12/1/1 6/1/1 10/1/1
f 12/1/1 10/1/1 11/1/1
f 17/5/1 14/5/1 13/5/1
f 18/5/1 14/5/1 17/5/1
f 19/5/1 16/5/1 15/5/1
f 20/5/1 16/5/1 19/5/1
f 29/3/1 22/3/1 21/3/1
f 30/3/1 22/3/1 29/3/1
f 31/3/1 24/3/1 23/3/1
f 32/3/1 24/3/1 31/3/1
f 33/3/1 26/3/1 25/3/1
f 34/3/1 26/3/1 33/3/1
f 35/3/1 28/3/1 27/3/1
f 36/3/1 28/3/1 35/3/1
f 39/1/1 38/1/1 37/1/1
f 40/1/1 38/1/1 39/1/1
f 43/1/1 42/1/1 41/1/1
f 44/1/1 42/1/1 43/1/1
f 49/3/1 46/3/1 45/3/1
f 50/3/1 46/3/1 49/3/1
f 51/3/1 48/3/1 47/3/1
f 52/3/1 48/3/1 51/3/1
f 57/3/1 54/3/1 53/3/1
f 58/3/1 54/3/1 57/3/1
f 59/3/1 56/3/1 55/3/1
f 60/3/1 56/3/1 59/3/1
f 65/1/1 62/1/1 61/1/1
f 66/1/1 62/1/1 65/1/1
f 67/1/1 64/1/1 63/1/1
f 68/1/1 64/1/1 67/1/1
f 69/5/2 70/5/2 73/5/2
f 73/5/2 70/5/2 74/5/2
f 71/5/2 72/5/2 75/5/2
f 75/5/2 72/5/2 76/5/2
f 77/1/2 78/1/2 79/1/2
f 79/1/2 78/1/2 80/1/2
f 81/3/2 82/3/2 85/3/2
f 85/3/2 82/3/2 86/3/2
f 83/3/2 84/3/2 87/3/2
f 87/3/2 84/3/2 88/3/2
f 89/3/2 90/3/2 93/3/2
f 93/3/2 90/3/2 94/3/2
f 91/3/2 92/3/2 95/3/2
f 95/3/2 92/3/2 96/3/2
f 97/1/2 98/1/2 99/1/2
f 99/1/2 98/1/2 100/1/2
f 101/1/2 102/1/2 103/1/2
f 103/1/2 102/1/2 104/1/2
f 103/1/2 104/1/2 105/1/2
f 105/1/2 104/1/2 106/1/2
f 105/1/2 106/1/2 107/1/2
f 107/1/2 106/1/2 108/1/2
f 109/1/2 110/1/2 113/1/2
f 113/1/2 110/1/2 114/1/2
f 111/1/2 112/1/2 115/1/2
f 115/1/2 112/1/2 116/1/2
f 119/5/3 118/5/3 117/5/3
f 120/5/3 118/5/3 119/5/3
f 121/5/3 119/5/3 117/5/3
f 121/6/3 120/6/3 119/6/3
f 122/5/3 118/5/3 120/5/3
f 122/6/3 120/6/3 121/6/3
f 123/5/3 121/5/3 117/5/3
f 123/5/3 122/5/3 121/5/3
f 124/5/3 118/5/3 122/5/3
f 124/5/3 122/5/3 123/5/3
f 127/1/3 126/1/3 125/1/3
f 128/1/3 126/1/3 127/1/3
f 131/1/3 130/1/3 129/1/3
f 132/1/3 130/1/3 131/1/3
f 136/1/3 131/1/3 129/1/3
f 137/1/3 131/1/3 136/1/3
f 137/1/3 136/1/3 135/1/3
f 138/1/3 130/1/3 132/1/3
f 139/1/3 137/1/3 135/1/3
f 139/1/3 138/1/3 137/1/3
f 140/1/3 130/1/3 138/1/3
f 140/1/3 138/1/3 139/1/3
f 141/1/3 139/1/3 135/1/3
f 142/1/3 139/1/3 141/1/3
f 143/3/3 134/3/3 133/3/3
f 144/3/3 134/3/3 143/3/3
f 145/1/3 141/1/3 135/1/3
f 146/1/3 141/1/3 145/1/3
f 147/1/3 139/1/3 142/1/3
f 148/1/3 139/1/3 147/1/3
f 152/1/3 150/1/3 149/1/3
f 153/3/3 152/3/3 151/3/3
f 154/1/3 150/1/3 152/1/3
f 154/3/3 152/3/3 153/3/3
f 155/1/3 150/1/3 154/1/3
f 156/1/3 150/1/3 155/1/3
f 159/2/3 158/2/3 157/2/3
f 160/2/3 158/2/3 159/2/3
f 163/3/3 162/3/3 161/3/3
f 164/3/3 162/3/3 163/3/3
f 167/3/3 166/3/3 165/3/3
f 168/3/3 166/3/3 167/3/3
f 171/3/3 170/3/3 169/3/3
f 172/3/3 170/3/3 171/3/3
f 175/3/3 174/3/3 173/3/3
f 176/3/3 174/3/3 175/3/3
f 179/1/3 178/1/3 177/1/3
f 180/1/3 178/1/3 179/1/3
f 181/1/4 182/1/4 183/1/4
f 183/1/4 182/1/4 184/1/4
f 185/3/4 186/3/4 187/3/4
f 187/3/4 186/3/4 188/3/4
f 189/3/4 190/3/4 191/3/4
f 191/3/4 190/3/4 192/3/4
f 193/3/4 194/3/4 195/3/4
f 195/3/4 194/3/4 196/3/4
f 197/2/4 198/2/4 199/2/4
f 199/2/4 198/2/4 200/2/4
f 201/3/4 202/3/4 203/3/4
f 203/3/4 202/3/4 204/3/4
f 205/1/4 206/1/4 208/1/4
f 207/3/4 208/3/4 209/3/4
f 208/1/4 206/1/4 210/1/4
f 209/3/4 208/3/4 210/3/4
f 210/1/4 206/1/4 211/1/4
f 211/1/4 206/1/4 212/1/4
f 213/1/4 214/1/4 215/1/4
f 215/1/4 214/1/4 216/1/4
f 213/1/4 215/1/4 220/1/4
f 220/1/4 215/1/4 221/1/4
f 219/1/4 220/1/4 221/1/4
f 216/1/4 214/1/4 222/1/4
f 219/1/4 221/1/4 223/1/4
f 221/1/4 222/1/4 223/1/4
f 222/1/4 214/1/4 224/1/4
f 223/1/4 222/1/4 224/1/4
f 219/1/4 223/1/4 225/1/4
f 225/1/4 223/1/4 226/1/4
f 217/3/4 218/3/4 227/3/4
f 227/3/4 218/3/4 228/3/4
f 219/1/4 225/1/4 229/1/4
f 229/1/4 225/1/4 230/1/4
f 226/1/4 223/1/4 231/1/4
f 231/1/4 223/1/4 232/1/4
f 233/5/4 234/5/4 235/5/4
f 235/5/4 234/5/4 236/5/4
f 233/5/4 235/5/4 237/5/4
f 235/6/4 236/6/4 237/6/4
f 236/5/4 234/5/4 238/5/4
f 237/6/4 236/6/4 238/6/4
f 233/5/4 237/5/4 239/5/4
f 237/5/4 238/5/4 239/5/4
f 238/5/4 234/5/4 240/5/4
f 239/5/4 238/5/4 240/5/4
f 241/1/4 242/1/4 243/1/4
f 243/1/4 242/1/4 244/1/4
f 247/3/5 246/3/5 245/3/5
f 248/3/5 246/3/5 247/3/5
f 250/3/5 246/3/5 248/3/5
f 251/3/5 250/3/5 249/3/5
f 252/3/5 246/3/5 250/3/5
f 252/3/5 250/3/5 251/3/5
f 255/3/5 254/3/5 253/3/5
f 256/3/5 254/3/5 255/3/5
f 258/3/5 254/3/5 256/3/5
f 259/3/5 258/3/5 257/3/5
f 260/3/5 254/3/5 258/3/5
f 260/3/5 258/3/5 259/3/5
f 265/1/5 262/1/5 261/1/5
f 266/1/5 264/1/5 263/1/5
f 267/1/5 265/1/5 261/1/5
f 267/1/5 266/1/5 265/1/5
f 268/1/5 264/1/5 266/1/5
f 268/1/5 266/1/5 267/1/5
f 269/1/5 267/1/5 261/1/5
f 270/1/5 267/1/5 269/1/5
f 271/1/5 264/1/5 268/1/5
f 272/1/5 264/1/5 271/1/5
f 275/1/5 274/1/5 273/1/5
f 276/1/5 274/1/5 275/1/5
f 277/1/5 275/1/5 273/1/5
f 278/1/5 274/1/5 276/1/5
f 279/1/5 277/1/5 273/1/5
f 279/1/5 278/1/5 277/1/5
f 280/1/5 274/1/5 278/1/5
f 280/1/5 278/1/5 279/1/5
f 283/1/5 282/1/5 281/1/5
f 284/1/5 282/1/5 283/1/5
f 285/1/5 282/1/5 284/1/5
f 289/1/5 287/1/5 286/1/5
f 289/1/5 288/1/5 287/1/5
f 290/1/5 288/1/5 289/1/5
f 293/1/5 292/1/5 291/1/5
f 294/1/5 292/1/5 293/1/5
f 297/2/5 296/2/5 295/2/5
f 298/2/5 296/2/5 297/2/5
f 301/5/5 300/5/5 299/5/5
f 302/5/5 300/5/5 301/5/5
f 305/5/5 304/5/5 303/5/5
f 306/5/5 304/5/5 305/5/5
f 307/3/6 308/3/6 309/3/6
f 309/3/6 308/3/6 310/3/6
f 310/3/6 308/3/6 311/3/6
f 311/3/6 308/3/6 312/3/6
f 310/3/6 311/3/6 314/3/6
f 314/3/6 311/3/6 315/3/6
f 312/3/6 308/3/6 316/3/6
f 314/3/6 315/3/6 317/3/6
f 315/3/6 316/3/6 317/3/6
f 313/3/6 314/3/6 317/3/6
f 316/3/6 308/3/6 318/3/6
f 317/3/6 316/3/6 318/3/6
f 319/3/6 320/3/6 321/3/6
f 321/3/6 320/3/6 322/3/6
f 322/3/6 320/3/6 323/3/6
f 323/3/6 320/3/6 324/3/6
f 322/3/6 323/3/6 326/3/6
f 326/3/6 323/3/6 327/3/6
f 324/3/6 320/3/6 328/3/6
f 326/3/6 327/3/6 329/3/6
f 327/3/6 328/3/6 329/3/6
f 325/3/6 326/3/6 329/3/6
f 328/3/6 320/3/6 330/3/6
f 329/3/6 328/3/6 330/3/6
f 331/1/6 332/1/6 333/1/6
f 333/1/6 332/1/6 334/1/6
f 334/1/6 332/1/6 335/1/6
f 336/1/6 337/1/6 339/1/6
f 337/1/6 338/1/6 339/1/6
f 339/1/6 338/1/6 340/1/6
f 341/1/6 342/1/6 343/1/6
f 343/1/6 342/1/6 344/1/6
f 345/2/6 346/2/6 347/2/6
f 347/2/6 346/2/6 348/2/6
f 349/5/6 350/5/6 351/5/6
f 351/5/6 350/5/6 352/5/6
f 353/5/6 354/5/6 355/5/6
f 355/5/6 354/5/6 356/5/6
f 357/1/6 358/1/6 359/1/6
f 359/1/6 358/1/6 360/1/6
